<svg xmlns="http://www.w3.org/2000/svg" fill-rule="evenodd" stroke-linejoin="round" stroke-miterlimit="2" clip-rule="evenodd" viewBox="0 0 32 32"><path fill="url(#a)" d="M5 20.874A4.002 4.002 0 0 1 2 17V6a4 4 0 0 1 4-4h12a4 4 0 0 1 4 4v11a3.995 3.995 0 0 1-1.172 2.828A3.995 3.995 0 0 1 18 21h-6.649l-4.726 3.781A1 1 0 0 1 5 24Z" transform="translate(0 5)"/><path fill="url(#b)" d="M27 20.874V24a.999.999 0 0 1-1.625.781L20.649 21H10a4 4 0 0 1-4-4V6a4 4 0 0 1 4-4h16a4 4 0 0 1 4 4v11a4.002 4.002 0 0 1-3 3.874z"/><path fill-opacity=".1" d="M17 11a2 2 0 1 0 .001 4.001A2 2 0 0 0 17 11zm-6 0a2 2 0 1 0 .001 4.001A2 2 0 0 0 11 11zm12 0a2 2 0 1 0 .001 4.001A2 2 0 0 0 23 11z"/><path fill="url(#c)" d="M9 12a2 2 0 0 1-2 2 2 2 0 0 1-2-2 2 2 0 0 1 2-2 2 2 0 0 1 2 2Z" transform="matrix(-1 0 0 1 25 0)"/><path fill="url(#d)" d="M9 12a2 2 0 0 1-2 2 2 2 0 0 1-2-2 2 2 0 0 1 2-2 2 2 0 0 1 2 2Z" transform="matrix(-1 0 0 1 19 0)"/><path fill="url(#e)" d="M9 12a2 2 0 0 1-2 2 2 2 0 0 1-2-2 2 2 0 0 1 2-2 2 2 0 0 1 2 2Z" transform="matrix(-1 0 0 1 31 0)"/><defs><linearGradient id="a" x1="0" x2="1" y1="0" y2="0" gradientTransform="matrix(17 -15 15 17 4 19)" gradientUnits="userSpaceOnUse"><stop offset="0" stop-color="#7f3af9"/><stop offset="1" stop-color="#b560ff"/></linearGradient><linearGradient id="b" x1="0" x2="1" y1="0" y2="0" gradientTransform="matrix(19 -16 16 19 8 19)" gradientUnits="userSpaceOnUse"><stop offset="0" stop-color="#18aefa"/><stop offset="1" stop-color="#83e1ff"/></linearGradient><linearGradient id="c" x1="0" x2="1" y1="0" y2="0" gradientTransform="matrix(-2 -3 -3 2 8 14)" gradientUnits="userSpaceOnUse"><stop offset="0" stop-color="#82e3ff"/><stop offset="1" stop-color="#fff"/></linearGradient><linearGradient id="d" x1="0" x2="1" y1="0" y2="0" gradientTransform="matrix(-2 -3 -3 2 8 14)" gradientUnits="userSpaceOnUse"><stop offset="0" stop-color="#82e3ff"/><stop offset="1" stop-color="#fff"/></linearGradient><linearGradient id="e" x1="0" x2="1" y1="0" y2="0" gradientTransform="matrix(-2 -3 -3 2 8 14)" gradientUnits="userSpaceOnUse"><stop offset="0" stop-color="#82e3ff"/><stop offset="1" stop-color="#fff"/></linearGradient></defs></svg>